<mxfile host="app.diagrams.net" agent="Mozilla/5.0 (Macintosh; Intel Mac OS X 10_15_7) AppleWebKit/605.1.15 (KHTML, like Gecko) Version/17.6 Safari/605.1.15" version="24.9.0">
  <diagram id="6SiOVoqLQWHYyK924Z2G" name="Page-2">
    <mxGraphModel dx="1203" dy="1134" grid="0" gridSize="10" guides="1" tooltips="1" connect="1" arrows="1" fold="1" page="0" pageScale="1" pageWidth="827" pageHeight="1169" math="0" shadow="0">
      <root>
        <mxCell id="0" />
        <mxCell id="1" parent="0" />
        <mxCell id="TC7Gc77UsIQIzNwlmf3q-11" value="" style="edgeStyle=none;curved=1;rounded=0;orthogonalLoop=1;jettySize=auto;html=1;fontSize=12;startSize=8;endSize=8;" edge="1" parent="1" source="TC7Gc77UsIQIzNwlmf3q-7" target="TC7Gc77UsIQIzNwlmf3q-10">
          <mxGeometry relative="1" as="geometry" />
        </mxCell>
        <mxCell id="TC7Gc77UsIQIzNwlmf3q-7" value="รับข้อมูล ชื่อ" style="shape=parallelogram;perimeter=parallelogramPerimeter;whiteSpace=wrap;html=1;fixedSize=1;rounded=1;arcSize=0;" vertex="1" parent="1">
          <mxGeometry x="296" y="228" width="126" height="63" as="geometry" />
        </mxCell>
        <mxCell id="TC7Gc77UsIQIzNwlmf3q-13" value="" style="edgeStyle=none;curved=1;rounded=0;orthogonalLoop=1;jettySize=auto;html=1;fontSize=12;startSize=8;endSize=8;" edge="1" parent="1" source="TC7Gc77UsIQIzNwlmf3q-10" target="TC7Gc77UsIQIzNwlmf3q-12">
          <mxGeometry relative="1" as="geometry" />
        </mxCell>
        <mxCell id="TC7Gc77UsIQIzNwlmf3q-10" value="รับข้อมูล นามสกุล" style="shape=parallelogram;perimeter=parallelogramPerimeter;whiteSpace=wrap;html=1;fixedSize=1;rounded=1;arcSize=0;" vertex="1" parent="1">
          <mxGeometry x="299" y="318" width="120" height="60" as="geometry" />
        </mxCell>
        <mxCell id="TC7Gc77UsIQIzNwlmf3q-15" value="" style="edgeStyle=none;curved=1;rounded=0;orthogonalLoop=1;jettySize=auto;html=1;fontSize=12;startSize=8;endSize=8;" edge="1" parent="1" source="TC7Gc77UsIQIzNwlmf3q-12" target="TC7Gc77UsIQIzNwlmf3q-14">
          <mxGeometry relative="1" as="geometry" />
        </mxCell>
        <mxCell id="TC7Gc77UsIQIzNwlmf3q-12" value="แสดงผล ชื่อ" style="shape=parallelogram;perimeter=parallelogramPerimeter;whiteSpace=wrap;html=1;fixedSize=1;rounded=1;arcSize=0;" vertex="1" parent="1">
          <mxGeometry x="296" y="421" width="120" height="60" as="geometry" />
        </mxCell>
        <mxCell id="TC7Gc77UsIQIzNwlmf3q-17" value="" style="edgeStyle=none;curved=1;rounded=0;orthogonalLoop=1;jettySize=auto;html=1;fontSize=12;startSize=8;endSize=8;" edge="1" parent="1" source="TC7Gc77UsIQIzNwlmf3q-14" target="TC7Gc77UsIQIzNwlmf3q-16">
          <mxGeometry relative="1" as="geometry" />
        </mxCell>
        <mxCell id="TC7Gc77UsIQIzNwlmf3q-14" value="แสดงผล นามสกุล" style="shape=parallelogram;perimeter=parallelogramPerimeter;whiteSpace=wrap;html=1;fixedSize=1;rounded=1;arcSize=0;" vertex="1" parent="1">
          <mxGeometry x="296" y="524" width="120" height="60" as="geometry" />
        </mxCell>
        <mxCell id="TC7Gc77UsIQIzNwlmf3q-19" value="" style="edgeStyle=none;curved=1;rounded=0;orthogonalLoop=1;jettySize=auto;html=1;fontSize=12;startSize=8;endSize=8;" edge="1" parent="1" source="TC7Gc77UsIQIzNwlmf3q-16" target="TC7Gc77UsIQIzNwlmf3q-18">
          <mxGeometry relative="1" as="geometry" />
        </mxCell>
        <mxCell id="TC7Gc77UsIQIzNwlmf3q-16" value="แสดงผล TC," style="shape=parallelogram;perimeter=parallelogramPerimeter;whiteSpace=wrap;html=1;fixedSize=1;rounded=1;arcSize=0;" vertex="1" parent="1">
          <mxGeometry x="296" y="627" width="120" height="60" as="geometry" />
        </mxCell>
        <mxCell id="TC7Gc77UsIQIzNwlmf3q-21" value="" style="edgeStyle=none;curved=1;rounded=0;orthogonalLoop=1;jettySize=auto;html=1;fontSize=12;startSize=8;endSize=8;" edge="1" parent="1" source="TC7Gc77UsIQIzNwlmf3q-18" target="TC7Gc77UsIQIzNwlmf3q-20">
          <mxGeometry relative="1" as="geometry" />
        </mxCell>
        <mxCell id="TC7Gc77UsIQIzNwlmf3q-18" value="แสดงผล RMUTL," style="shape=parallelogram;perimeter=parallelogramPerimeter;whiteSpace=wrap;html=1;fixedSize=1;rounded=1;arcSize=0;" vertex="1" parent="1">
          <mxGeometry x="296" y="730" width="120" height="60" as="geometry" />
        </mxCell>
        <mxCell id="TC7Gc77UsIQIzNwlmf3q-23" value="" style="edgeStyle=none;curved=1;rounded=0;orthogonalLoop=1;jettySize=auto;html=1;fontSize=12;startSize=8;endSize=8;" edge="1" parent="1" source="TC7Gc77UsIQIzNwlmf3q-20" target="TC7Gc77UsIQIzNwlmf3q-22">
          <mxGeometry relative="1" as="geometry" />
        </mxCell>
        <mxCell id="TC7Gc77UsIQIzNwlmf3q-20" value="แสดงผล ChiangMai," style="shape=parallelogram;perimeter=parallelogramPerimeter;whiteSpace=wrap;html=1;fixedSize=1;rounded=1;arcSize=0;" vertex="1" parent="1">
          <mxGeometry x="248" y="833" width="216" height="60" as="geometry" />
        </mxCell>
        <mxCell id="e3VBhY5ERFJzScI48qiK-5" value="" style="edgeStyle=none;curved=1;rounded=0;orthogonalLoop=1;jettySize=auto;html=1;fontSize=12;startSize=8;endSize=8;" edge="1" parent="1" source="TC7Gc77UsIQIzNwlmf3q-22" target="e3VBhY5ERFJzScI48qiK-4">
          <mxGeometry relative="1" as="geometry" />
        </mxCell>
        <mxCell id="TC7Gc77UsIQIzNwlmf3q-22" value="แสดงผล &amp;nbsp;Thailand" style="shape=parallelogram;perimeter=parallelogramPerimeter;whiteSpace=wrap;html=1;fixedSize=1;rounded=1;arcSize=0;" vertex="1" parent="1">
          <mxGeometry x="248" y="936" width="216" height="60" as="geometry" />
        </mxCell>
        <mxCell id="e3VBhY5ERFJzScI48qiK-3" value="" style="edgeStyle=none;curved=1;rounded=0;orthogonalLoop=1;jettySize=auto;html=1;fontSize=12;startSize=8;endSize=8;" edge="1" parent="1" source="e3VBhY5ERFJzScI48qiK-2" target="TC7Gc77UsIQIzNwlmf3q-7">
          <mxGeometry relative="1" as="geometry" />
        </mxCell>
        <mxCell id="e3VBhY5ERFJzScI48qiK-2" value="Start" style="strokeWidth=2;html=1;shape=mxgraph.flowchart.terminator;whiteSpace=wrap;" vertex="1" parent="1">
          <mxGeometry x="313" y="91" width="100" height="60" as="geometry" />
        </mxCell>
        <mxCell id="e3VBhY5ERFJzScI48qiK-4" value="End" style="strokeWidth=2;html=1;shape=mxgraph.flowchart.terminator;whiteSpace=wrap;" vertex="1" parent="1">
          <mxGeometry x="304" y="1063" width="100" height="60" as="geometry" />
        </mxCell>
      </root>
    </mxGraphModel>
  </diagram>
</mxfile>
